PathFileType	4	(X/Y/Z)	C:/Users/dbak576/Desktop/Duncan Bakke Modelling Files/H27s1/Static_H27s1.trc	
DataRate	CameraRate	NumFrames	NumMarkers	Units	OrigDataRate	OrigDataStartFrame	OrigNumFrames	
200.00	200.00	4	61	mm	200.00	1528	70	
Frame#	Time	LFHD			RFHD			LBHD			RBHD			C7			T10			CLAV			STRN			RBack			LASI			RASI			LPSI			RPSI			RACR1			RUA1			RElbow			RElbowM			RFA1			RWRR			RWRU			RCAR			LACR1			LUA1			LElbow			LElbowM			LFA1			LWRR			LWRU			LCAR			RTH1			RTH3			RTH2			RTH4			RLFC			RMFC			RTB1			RTB3			RTB2			RTB4			RLMAL			RMMAL			RCAL			RMT1			RMT5			RToe			LTH1			LTH3			LTH2			LTH4			LLFC			LMFC			LTB1			LTB3			LTB2			LTB4			LLMAL			LMMAL			LCAL			LMT1			LMT5			LToe			
		X1	Y1	Z1	X2	Y2	Z2	X3	Y3	Z3	X4	Y4	Z4	X5	Y5	Z5	X6	Y6	Z6	X7	Y7	Z7	X8	Y8	Z8	X9	Y9	Z9	X10	Y10	Z10	X11	Y11	Z11	X12	Y12	Z12	X13	Y13	Z13	X14	Y14	Z14	X15	Y15	Z15	X16	Y16	Z16	X17	Y17	Z17	X18	Y18	Z18	X19	Y19	Z19	X20	Y20	Z20	X21	Y21	Z21	X22	Y22	Z22	X23	Y23	Z23	X24	Y24	Z24	X25	Y25	Z25	X26	Y26	Z26	X27	Y27	Z27	X28	Y28	Z28	X29	Y29	Z29	X30	Y30	Z30	X31	Y31	Z31	X32	Y32	Z32	X33	Y33	Z33	X34	Y34	Z34	X35	Y35	Z35	X36	Y36	Z36	X37	Y37	Z37	X38	Y38	Z38	X39	Y39	Z39	X40	Y40	Z40	X41	Y41	Z41	X42	Y42	Z42	X43	Y43	Z43	X44	Y44	Z44	X45	Y45	Z45	X46	Y46	Z46	X47	Y47	Z47	X48	Y48	Z48	X49	Y49	Z49	X50	Y50	Z50	X51	Y51	Z51	X52	Y52	Z52	X53	Y53	Z53	X54	Y54	Z54	X55	Y55	Z55	X56	Y56	Z56	X57	Y57	Z57	X58	Y58	Z58	X59	Y59	Z59	X60	Y60	Z60	X61	Y61	Z61	

62	0.305	-51.15669	-365.68582	1605.61755	42.95018	-365.30777	1600.91187	-82.49479	-520.28381	1560.28162	62.06089	-518.19623	1561.78137	-13.67292	-558.96777	1420.39539	-22.76951	-578.12384	1141.77539	-15.17317	-411.53174	1366.17358	-11.07707	-344.83722	1279.08362	88.95296	-595.21320	1314.42041	-146.65883	-308.20325	968.81372	140.14374	-332.05896	986.60120	-67.05615	-556.56927	976.51025	21.71657	-562.88361	979.16254	107.46899	-506.55573	1417.59814	279.92850	-521.56812	1391.68872	398.09430	-537.96100	1335.78479	396.57245	-458.39777	1284.58496	534.20996	-533.63000	1309.14697	648.72516	-504.85046	1379.43848	655.54877	-488.48187	1309.99658	705.36841	-539.01929	1345.60742	-139.91457	-508.30286	1416.87512	-308.51337	-512.87384	1397.78015	-433.89261	-508.30756	1359.06421	-432.32272	-455.40137	1310.53296	-563.07202	-498.86423	1346.87830	-676.84277	-470.42645	1420.72473	-680.78357	-451.24356	1355.22168	-733.63715	-489.91202	1392.54431	221.69807	-413.03198	756.29327	195.97366	-444.80453	588.75629	186.21980	-375.86627	665.49725	206.59503	-430.53973	671.53455	181.20934	-464.83484	504.33420	33.82819	-456.91037	482.57040	136.17989	-426.62387	344.46683	159.33218	-442.31125	174.82996	202.70105	-460.53723	269.21127	145.23515	-436.25299	258.31396	197.64674	-490.24655	66.49365	116.33552	-464.74985	61.83401	161.19878	-542.27771	25.33239	153.09114	-364.86646	33.55066	231.51341	-403.76218	28.12639	189.73766	-298.17834	27.45267	-244.58641	-410.29019	765.50519	-198.17784	-446.06931	605.12341	-199.23370	-372.89746	681.19214	-216.65569	-428.71240	687.24158	-177.16351	-469.60577	485.43668	-26.45082	-482.33911	474.07285	-118.55756	-433.43890	340.03601	-139.00357	-450.83133	169.43005	-184.22263	-465.62894	261.32858	-127.39247	-443.04376	253.99408	-172.50706	-496.47705	62.47651	-89.37455	-473.73526	56.75442	-132.91148	-553.62317	28.60067	-123.47929	-372.45294	27.55806	-199.13400	-410.99619	25.12301	-160.54213	-305.44730	22.50208 
63	0.310	-51.16412	-365.64798	1605.57849	43.01314	-365.26804	1600.83325	-82.49646	-520.22046	1560.28625	62.03307	-518.45953	1561.92957	-13.67531	-558.97028	1420.39526	-22.78772	-578.13611	1141.80750	-15.16471	-411.52472	1366.17346	-11.09038	-344.82645	1279.07312	88.92750	-595.23499	1314.43396	-146.63507	-308.20209	968.80017	140.15144	-332.09940	986.60583	-67.07709	-556.65356	976.51526	21.83661	-562.82996	979.15295	107.45213	-506.57773	1417.58484	279.90604	-521.58307	1391.67212	398.06625	-537.99139	1335.81189	396.58792	-458.59811	1284.74036	534.22528	-533.59167	1309.19153	648.75537	-504.74530	1379.52271	655.73492	-488.32614	1309.95496	705.29224	-539.01819	1345.66016	-139.96428	-508.36124	1416.92407	-308.51999	-512.88013	1397.75623	-433.92224	-508.34891	1359.08337	-432.31723	-455.33273	1310.52637	-562.96722	-498.84781	1346.64490	-676.89893	-470.47137	1420.75562	-680.86304	-451.46048	1355.63184	-733.65747	-490.12567	1392.72961	221.70248	-413.08762	756.31506	195.99312	-444.83963	588.75848	186.28200	-375.90640	665.50458	206.58948	-430.63617	671.54938	181.23520	-464.87408	504.30145	33.87304	-457.19516	482.69485	136.18163	-426.62872	344.45862	159.35661	-442.29657	174.81496	202.69969	-460.56433	269.18222	145.62762	-436.38455	257.82150	197.56581	-490.24768	66.36221	116.33224	-464.73990	61.84187	161.14594	-542.14801	25.27873	153.02431	-364.94772	33.45952	231.24254	-403.80518	27.95576	189.73230	-298.15396	27.42862	-244.57008	-410.28726	765.50781	-198.16089	-446.07120	605.10712	-199.20935	-372.88696	681.15497	-216.60692	-428.74167	687.26978	-177.04231	-469.63184	485.27673	-26.60229	-482.33704	474.19473	-118.56104	-433.42841	340.03769	-139.00723	-450.83643	169.42908	-184.21315	-465.63559	261.31894	-127.36611	-443.06268	254.01027	-172.52774	-496.50510	62.48104	-89.40682	-473.69666	56.77823	-133.07533	-553.57562	28.60227	-123.49186	-372.45499	27.55501	-199.11890	-410.97714	25.10537	-160.54897	-305.55737	22.59004 
64	0.315	-51.15163	-365.59265	1605.51685	43.05574	-365.22195	1600.78430	-82.48879	-520.14819	1560.27832	61.79799	-518.96191	1562.10364	-13.68315	-558.96625	1420.39612	-22.79624	-578.16925	1141.81238	-15.16803	-411.53500	1366.17810	-11.10501	-344.82791	1279.08215	88.90029	-595.25421	1314.44641	-146.62148	-308.19284	968.75989	140.16592	-332.13635	986.60406	-67.12755	-556.72760	976.53485	21.84748	-562.85419	979.17133	107.43963	-506.59680	1417.57898	279.89032	-521.59033	1391.67737	398.03619	-538.01862	1335.84351	396.61145	-458.78214	1284.83496	534.23352	-533.55927	1309.24231	648.80237	-504.63852	1379.57483	655.76343	-488.12732	1309.94983	705.21838	-538.99207	1345.67834	-140.05241	-508.42465	1416.96655	-308.50085	-512.88226	1397.74121	-433.95944	-508.40259	1359.10071	-432.31250	-455.26224	1310.50427	-562.88519	-498.78824	1346.37634	-676.93774	-470.50870	1420.76831	-681.12506	-451.69113	1355.78589	-733.70715	-490.43344	1392.92627	221.70808	-413.13004	756.32971	196.01834	-444.87534	588.76233	186.34206	-375.92871	665.50739	206.58618	-430.71429	671.55548	181.25304	-464.90854	504.27643	33.93263	-457.54199	482.74945	136.17952	-426.62717	344.45145	159.37437	-442.29153	174.80617	202.69550	-460.58603	269.16586	146.01328	-436.55869	257.50391	197.51482	-490.20041	66.31847	116.33241	-464.72644	61.84864	160.99796	-541.98718	25.20809	152.94055	-365.04034	33.25079	231.04027	-403.78360	27.95957	189.73207	-298.13571	27.41897	-244.56380	-410.27689	765.49658	-198.14284	-446.05096	605.07745	-199.18739	-372.87781	681.12421	-216.53249	-428.75244	687.28186	-176.97246	-469.62119	485.23874	-26.61818	-482.41898	474.50851	-118.56223	-433.41983	340.04031	-139.01071	-450.83389	169.43179	-184.20129	-465.64130	261.31204	-127.32832	-443.06528	254.01320	-172.52170	-496.48474	62.41278	-89.54153	-473.61328	56.81701	-133.14674	-553.59741	28.63348	-123.50184	-372.45703	27.55551	-199.09709	-410.96298	25.11739	-160.56660	-305.68219	22.62484 
65	0.320	-51.18314	-365.60831	1605.53418	43.06347	-365.17096	1600.76294	-82.47046	-520.06079	1560.25195	61.70231	-519.29022	1562.10632	-13.69741	-558.96271	1420.39124	-22.81201	-578.19031	1141.81604	-15.16435	-411.54449	1366.17883	-11.11230	-344.84021	1279.09888	88.87748	-595.27179	1314.45947	-146.61087	-308.18365	968.71149	140.19965	-332.16403	986.60101	-67.18089	-556.78363	976.56702	21.76299	-562.93585	979.20898	107.43179	-506.60602	1417.58105	279.88348	-521.58954	1391.69617	398.01169	-538.04803	1335.86902	396.64383	-458.93863	1284.88232	534.23663	-533.53992	1309.29724	648.82251	-504.58389	1379.63745	655.67944	-487.94229	1309.98511	705.11792	-539.01398	1345.76428	-140.14357	-508.45935	1417.03589	-308.51184	-512.91211	1397.74353	-433.99146	-508.46103	1359.11584	-432.29935	-455.18964	1310.49707	-562.89288	-498.63464	1346.00073	-676.98431	-470.58664	1420.73755	-681.29736	-451.70709	1356.11975	-733.81378	-490.78406	1393.13306	221.71014	-413.15430	756.33838	196.04626	-444.91049	588.76855	186.40054	-375.93152	665.50604	206.57642	-430.76764	671.55048	181.26968	-464.94495	504.26282	33.99477	-457.93845	482.74170	136.17708	-426.61819	344.44525	159.38193	-442.29443	174.80800	202.69484	-460.60504	269.15878	146.55208	-436.77902	257.03925	197.48515	-490.09866	66.32310	116.33015	-464.71683	61.85699	160.83836	-541.78357	25.17074	152.91280	-365.07986	33.18560	230.91451	-403.72699	28.04671	189.73407	-298.11899	27.41357	-244.56580	-410.26337	765.47845	-198.11450	-446.03281	605.06378	-199.16580	-372.87006	681.10809	-216.45142	-428.74844	687.27991	-176.98050	-469.57794	485.27737	-26.58382	-482.47281	474.81659	-118.56067	-433.41617	340.04419	-139.00674	-450.82944	169.43277	-184.15378	-465.65936	261.33875	-127.28281	-443.07129	254.01685	-172.49754	-496.45752	62.39898	-89.65953	-473.51422	56.85966	-133.18073	-553.61713	28.69212	-123.50838	-372.45456	27.55781	-199.07257	-410.95209	25.10970	-160.58664	-305.81766	22.68762 
